<?xml version="1.0" encoding="UTF-8" standalone="no"?><!-- Generator: Gravit.io --><svg xmlns="http://www.w3.org/2000/svg" xmlns:xlink="http://www.w3.org/1999/xlink" style="isolation:isolate" viewBox="0 0 27.64 25.907" width="27.64pt" height="25.907pt"><defs><clipPath id="_clipPath_LiXjhRIJR8uQN2gxfDkX4hHGYVAyldK3"><rect width="27.64" height="25.907"/></clipPath></defs><g clip-path="url(#_clipPath_LiXjhRIJR8uQN2gxfDkX4hHGYVAyldK3)"><clipPath id="_clipPath_SNaKk5UEweItBnGwBgiIb5Fg06sau3wM"><rect x="0" y="0" width="27.64" height="25.907" transform="matrix(1,0,0,1,0,0)" fill="rgb(255,255,255)"/></clipPath><g clip-path="url(#_clipPath_SNaKk5UEweItBnGwBgiIb5Fg06sau3wM)"><g><path d=" M 13.68 0.984 C 6.954 0.984 1.499 6.292 1.499 12.836 C 1.499 19.381 6.954 24.689 13.68 24.689 C 20.405 24.689 25.86 19.381 25.86 12.836 C 25.86 6.292 20.405 0.984 13.68 0.984 Z  M 19.444 14.507 C 19.989 15.067 20.557 15.601 21.031 16.237 C 21.244 16.517 21.457 16.797 21.599 17.127 C 21.813 17.585 21.623 18.094 21.244 18.119 L 18.875 18.119 C 18.259 18.17 17.786 17.916 17.359 17.458 C 17.028 17.102 16.72 16.72 16.412 16.339 C 16.293 16.186 16.151 16.033 15.985 15.932 C 15.654 15.703 15.37 15.779 15.204 16.135 C 15.014 16.517 14.967 16.924 14.943 17.331 C 14.92 17.941 14.754 18.094 14.185 18.119 C 12.977 18.17 11.84 17.992 10.798 17.331 C 9.874 16.746 9.14 15.957 8.524 15.041 C 7.292 13.261 6.368 11.302 5.516 9.292 C 5.326 8.834 5.468 8.605 5.942 8.58 C 6.724 8.555 7.482 8.555 8.263 8.58 C 8.571 8.58 8.784 8.784 8.903 9.089 C 9.329 10.183 9.827 11.251 10.466 12.218 C 10.632 12.472 10.822 12.726 11.058 12.93 C 11.343 13.133 11.532 13.057 11.674 12.726 C 11.745 12.523 11.793 12.294 11.817 12.065 C 11.888 11.302 11.888 10.539 11.769 9.776 C 11.698 9.267 11.461 8.962 11.011 8.86 C 10.774 8.809 10.822 8.733 10.916 8.58 C 11.106 8.351 11.295 8.198 11.651 8.198 L 14.327 8.198 C 14.754 8.3 14.849 8.478 14.896 8.936 L 14.896 12.141 C 14.896 12.319 14.967 12.854 15.275 12.955 C 15.512 13.032 15.678 12.828 15.82 12.676 C 16.459 11.938 16.909 11.073 17.336 10.183 C 17.525 9.776 17.667 9.369 17.833 8.962 C 17.952 8.656 18.117 8.504 18.449 8.504 L 21.031 8.504 C 21.102 8.504 21.173 8.504 21.268 8.529 C 21.694 8.605 21.813 8.809 21.694 9.267 C 21.481 9.979 21.078 10.59 20.676 11.175 C 20.249 11.811 19.775 12.421 19.349 13.083 C 18.923 13.693 18.946 13.998 19.444 14.507 Z " fill="none" vector-effect="non-scaling-stroke" stroke-width="2" stroke="rgb(0,0,0)" stroke-linejoin="miter" stroke-linecap="butt" stroke-miterlimit="4"/></g></g></g></svg>