<svg xmlns="http://www.w3.org/2000/svg" viewBox="0 0 1820.2267 548.58002" height="548.58002" width="1820.2267" xml:space="preserve" id="svg2" version="1.1"><metadata id="metadata8"><rdf:RDF xmlns:rdf="http://www.w3.org/1999/02/22-rdf-syntax-ns#"><cc:Work xmlns:cc="http://creativecommons.org/ns#" rdf:about=""><dc:format xmlns:dc="http://purl.org/dc/elements/1.1/">image/svg+xml</dc:format><dc:type xmlns:dc="http://purl.org/dc/elements/1.1/" rdf:resource="http://purl.org/dc/dcmitype/StillImage"/></cc:Work></rdf:RDF></metadata><defs id="defs6"/><g transform="matrix(1.3333333,0,0,-1.3333333,0,548.58)" id="g10"><g transform="translate(166.5243,286.6964)" id="g12"><path id="path14" style="fill:#000000;fill-opacity:1;fill-rule:nonzero;stroke:none" d="m 0,0 h 11.799 v -151.316 h 93.242 v -10.642 H 0 Z"/></g><g transform="translate(444.1624,180.2666)" id="g16"><path id="path18" style="fill:#000000;fill-opacity:1;fill-rule:nonzero;stroke:none" d="M 0,0 -42.573,93.473 -84.913,0 Z m 4.396,-9.949 h -93.935 l -20.592,-45.579 h -12.726 l 74.501,161.958 h 11.799 L 37.944,-55.528 H 25.218 Z"/></g><g transform="translate(678.7675,286.6964)" id="g20"><path id="path22" style="fill:#000000;fill-opacity:1;fill-rule:nonzero;stroke:none" d="M 0,0 -72.188,-161.958 H -83.987 L -156.175,0 h 12.957 L -77.74,-146.688 -12.263,0 Z"/></g><path id="path24" style="fill:#000000;fill-opacity:1;fill-rule:nonzero;stroke:none" d="m 751.186,286.696 h 11.799 V 124.738 h -11.799 z"/><g transform="translate(977.4623,135.3807)" id="g26"><path id="path28" style="fill:#000000;fill-opacity:1;fill-rule:nonzero;stroke:none" d="M 0,0 V -10.642 H -111.75 V 151.316 H -3.47 V 140.673 H -99.951 V 76.814 H -13.65 V 66.403 H -99.951 V 0 Z"/></g><g transform="translate(1198.6497,286.6964)" id="g30"><path id="path32" style="fill:#000000;fill-opacity:1;fill-rule:nonzero;stroke:none" d="M 0,0 V -161.958 H -9.717 L -120.08,-21.286 v -140.672 h -11.799 V 0 h 9.948 L -11.799,-140.672 V 0 Z"/></g></g></svg>